<svg xmlns="http://www.w3.org/2000/svg" xmlns:xlink="http://www.w3.org/1999/xlink" version="1.1" x="0px" y="0px" viewBox="0 0 100 125" enable-background="new 0 0 100 100" xml:space="preserve"><g><path d="M81.922,20.431c-1.951-1.952-5.119-1.952-7.07,0c-1.953,1.953-1.953,5.119,0,7.071   c6.639,6.639,10.295,15.465,10.295,24.853S81.49,70.567,74.852,77.206C61.148,90.908,38.851,90.91,25.148,77.205   c-6.639-6.638-10.294-15.463-10.294-24.851s3.656-18.214,10.294-24.853c1.953-1.953,1.953-5.119,0-7.071   c-1.953-1.952-5.118-1.952-7.071,0C9.549,28.958,4.854,40.296,4.854,52.354S9.549,75.75,18.077,84.276   C26.879,93.079,38.438,97.479,50,97.479c11.559-0.001,23.123-4.401,31.922-13.201c8.528-8.527,13.225-19.864,13.225-31.923   C95.146,40.295,90.45,28.958,81.922,20.431z"/><path d="M50,53.761c2.762,0,5-2.238,5-5V7.5c0-2.761-2.238-5-5-5c-2.761,0-5,2.239-5,5v41.261C45,51.522,47.239,53.761,50,53.761z"/></g><text x="0" y="115" fill="#000000" font-size="5px" font-weight="bold" font-family="'Helvetica Neue', Helvetica, Arial-Unicode, Arial, Sans-serif">Created by Yeong Rong Kim</text><text x="0" y="120" fill="#000000" font-size="5px" font-weight="bold" font-family="'Helvetica Neue', Helvetica, Arial-Unicode, Arial, Sans-serif">from the Noun Project</text></svg>