<svg xmlns="http://www.w3.org/2000/svg" xmlns:xlink="http://www.w3.org/1999/xlink" version="1.1" x="0px" y="0px" viewBox="0 0 32 40" style="enable-background:new 0 0 32 32;" xml:space="preserve"><g><path d="M24.9,9.5c-0.5-0.1-1,0.1-1.6,0.2c-0.5-1.5-1.1-3-1.7-4.4c-0.4-0.9-0.9-2.3-1.6-3c-1.1-0.8-2.2,0.5-2.9,1.4   c-2.8,3.6-5.4,7.4-9.2,9.7c0,0-0.1,0-0.1,0.1c-1.1,0.4-2.1,0.8-3.2,1.2c-0.7,0.3-1.6,0.4-2.2,1c-1,1-0.3,3.2,0.1,4.3   c0.4,1.1,1.2,3.2,2.3,3.6c0.3,0.1,0.6,0,1-0.1c0.6,1.5,1.2,3.1,2,4.6c0.5,1,1,2.2,2.1,1.8c1.2-0.4,2.6-1.8,2.3-3.4   c-0.2-0.8-0.8-1.4-1.2-2.1c-0.4-0.7-0.8-1.5-1.1-2.3c0.2-0.1,0.3-0.1,0.5-0.2c2.2-0.5,4.3-0.7,6.5-0.5c2,0.3,3.9,0.9,5.8,1.3   c0.9,0.2,2.8,1.1,3.4-0.2c0.7-1.4-0.2-3.9-0.5-5.3c-0.2-0.9-0.4-1.8-0.7-2.8c0.5-0.4,1.2-0.8,1.5-1.5c0.3-0.7,0-1.5-0.3-2.2   C25.8,10.3,25.5,9.5,24.9,9.5z M4.2,21.5c-0.3-0.5-0.6-1.1-0.8-1.7c-0.2-0.6-0.4-1.2-0.5-1.8c-0.2-1.3,0.4-1.9,1.4-2.3   c1.2-0.5,2.4-0.9,3.6-1.3c0.6,2.3,1.3,4.5,1.9,6.7c-1.1,0.4-2.2,0.8-3.2,1.1C5.7,22.5,4.9,22.6,4.2,21.5z M10.7,25.3   c0.1,0.2,0.3,0.4,0.4,0.5c0.5,1,0.5,1.6-0.2,2.5c-0.2,0.2-0.6,0.5-0.8,0.7c-0.2,0.1-0.4,0.2-0.6,0.2c0.1-0.2,0.2-0.5,0.3-0.7   c0.1-0.4-0.5-0.6-0.6-0.2c-0.1,0.2-0.1,0.4-0.2,0.6c0,0-0.1-0.1-0.1-0.1c-0.1-0.1-0.1-0.1-0.2-0.2c0,0,0,0,0,0   c0-0.2,0.1-0.3,0.2-0.4C9,27.9,9,27.7,9.1,27.5c0.1-0.4-0.5-0.6-0.6-0.2c-0.1,0.2-0.1,0.4-0.2,0.5c-0.1-0.2-0.2-0.3-0.2-0.5   c0,0,0,0,0,0c0.1-0.4,0.3-0.7,0.4-1.1c0.1-0.2,0-0.4-0.1-0.5c-0.1-0.1-0.4,0-0.4,0.1c-0.1,0.2-0.2,0.4-0.2,0.6   c-0.1-0.1-0.1-0.3-0.2-0.4c0-0.1-0.1-0.1-0.1-0.2c0,0,0-0.1,0.1-0.1c0.1-0.3,0.3-0.6,0.4-0.8c0.2-0.4-0.3-0.8-0.5-0.4   c-0.1,0.2-0.2,0.3-0.3,0.5c-0.1-0.2-0.2-0.4-0.2-0.6c0,0,0,0,0.1-0.1c0.1-0.2,0.2-0.4,0.4-0.6c0.1-0.2,0-0.4-0.1-0.5   c-0.2-0.1-0.3,0-0.4,0.1c-0.1,0.1-0.1,0.2-0.2,0.3c-0.1-0.2-0.1-0.4-0.2-0.5c0.2-0.1,0.3-0.1,0.5-0.2c0.8-0.2,1.5-0.5,2.3-0.8   C9.6,23.4,10.1,24.4,10.7,25.3z M22,21.7c-1.8-0.5-3.5-1-5.3-1.2c-2.1-0.2-4.1,0-6.2,0.4c-0.7-2.3-1.4-4.6-2-6.9   c3.4-2.2,6-5.5,8.5-8.9c0.3-0.4,0.7-1.1,1.3-1.6c1.5,2.6,2.4,5.7,3.4,8.6c1.1,3.2,2,6.8,2.5,10.2C23.5,22.2,22.6,21.8,22,21.7z    M25.4,21.4c0,0.5-0.3,0.7-0.6,0.8c-0.5-3.6-1.5-7.2-2.6-10.6c-1-2.8-1.9-6-3.4-8.5c0.3-0.1,0.5-0.2,0.8,0c0.3,0.2,0.6,1.2,0.8,1.5   c0.9,1.8,1.6,3.7,2.2,5.6c0.8,2.3,1.5,4.6,2,7C25,18.5,25.5,20.1,25.4,21.4z M25.6,13c-0.2,0.4-0.6,0.6-0.9,0.8   c-0.3-1.2-0.7-2.4-1.1-3.6c0.2,0,0.5-0.1,0.7-0.1c0.6-0.1,0.8,0.1,1.1,0.8C25.7,11.6,26,12.4,25.6,13z"/><path d="M25.1,7.3c0-0.7,0-1.4,0-2c0-0.5-0.6-0.5-0.6,0c0,0.7,0,1.4,0,2C24.5,7.8,25.1,7.8,25.1,7.3z"/><path d="M27.6,8.7c0.3-0.4,0.6-0.8,1-1.2c0.3-0.3-0.2-0.8-0.4-0.5c-0.3,0.4-0.6,0.8-1,1.2C26.9,8.5,27.3,9,27.6,8.7z"/><path d="M29.7,11c-0.5,0-0.9,0-1.4,0c-0.4,0-0.4,0.7,0,0.7c0.5,0,0.9,0,1.4,0C30.1,11.8,30.1,11.1,29.7,11z"/><path d="M27.4,14.3c-0.3-0.3-0.6,0.4-0.3,0.6c0.4,0.3,0.8,0.7,1.1,1.1c0.3,0.3,0.7-0.2,0.4-0.5C28.2,15.1,27.8,14.7,27.4,14.3z"/><path d="M5.3,17.7c0.4-0.2,0.2-0.9-0.2-0.7c-0.4,0.2-0.8,0.4-1.2,0.6c-0.4,0.2-0.2,0.9,0.2,0.7C4.5,18.1,4.9,17.9,5.3,17.7z"/><path d="M5.5,18.2c-0.4,0.2-0.9,0.4-1.3,0.6c-0.4,0.1-0.2,0.8,0.2,0.7c0.5-0.2,1-0.4,1.5-0.7C6.2,18.6,5.9,18,5.5,18.2z"/></g><text x="0" y="47" fill="#000000" font-size="5px" font-weight="bold" font-family="'Helvetica Neue', Helvetica, Arial-Unicode, Arial, Sans-serif">Created by Obist Studio</text><text x="0" y="52" fill="#000000" font-size="5px" font-weight="bold" font-family="'Helvetica Neue', Helvetica, Arial-Unicode, Arial, Sans-serif">from the Noun Project</text></svg>