<svg id="Layer_1" data-name="Layer 1" xmlns="http://www.w3.org/2000/svg" viewBox="0 0 194 194"><title>User_icon</title><g id="border"><path d="M605,265a84,84,0,1,1-84,84,84.09513,84.09513,0,0,1,84-84m0-13a97,97,0,1,0,97,97,97,97,0,0,0-97-97Z" transform="translate(-508 -252)"/></g><circle cx="97" cy="65" r="33"/><path d="M551,394c-8.44147-9.10907-8.31122-14.73462-8-17,.83569-6.08286,6.0473-10.29041,12.5-15.5a70.56271,70.56271,0,0,1,12.00311-7.8181,6.82759,6.82759,0,0,1,6.52424.17143,60.95361,60.95361,0,0,0,60.67427.158,6.83155,6.83155,0,0,1,6.92674.11175A131.12246,131.12246,0,0,1,652.5,361.5c8.96344,6.76105,13.46625,10.24872,14.5,15.5,1.34631,6.83887-3.77936,13.1456-7,17-10.00458,11.9733-28,24-50,24C581.22937,418,560.36084,404.10117,551,394Z" transform="translate(-508 -252)"/></svg>