<svg width="409" height="134" fill="none" xmlns="http://www.w3.org/2000/svg">
  <g id="Frame">
    <path d="M309.494 72.4111c-1.627 1.3998-3.45 2.474-5.469 3.2227-2.018.7487-4.109 1.123-6.274 1.123-1.66 0-3.263-.2197-4.81-.6591-1.53-.4232-2.97-1.0254-4.321-1.8067-1.335-.7975-2.555-1.7497-3.662-2.8564-1.107-1.1068-2.059-2.3275-2.856-3.6621-.782-1.351-1.392-2.7914-1.831-4.3213-.424-1.5463-.635-3.1494-.635-4.8096 0-1.6602.211-3.2633.635-4.8096.439-1.5462 1.049-2.9866 1.831-4.3213.797-1.3509 1.749-2.5797 2.856-3.6865 1.107-1.1068 2.327-2.0508 3.662-2.832 1.351-.7975 2.791-1.4079 4.321-1.8311 1.547-.4394 3.15-.6591 4.81-.6591 2.165 0 4.256.3743 6.274 1.123 2.019.7324 3.842 1.8066 5.469 3.2227l-3.711 6.1035c-1.025-1.1068-2.238-1.9532-3.637-2.5391-1.4-.6022-2.865-.9033-4.395-.9033-1.546 0-2.995.293-4.346.8789-1.351.5859-2.531 1.3835-3.54 2.3926-1.009.9928-1.806 2.1728-2.392 3.54-.586 1.3509-.879 2.7914-.879 4.3213s.293 2.9704.879 4.3213c.586 1.3346 1.383 2.5065 2.392 3.5156s2.189 1.8067 3.54 2.3926c1.351.5859 2.8.8789 4.346.8789 1.53 0 2.995-.293 4.395-.8789 1.399-.6022 2.612-1.4567 3.637-2.5635l3.711 6.1035zm27.71-9.7168c0 1.9532-.35 3.7761-1.05 5.4688-.7 1.6764-1.652 3.1331-2.856 4.3701-1.205 1.2207-2.621 2.1891-4.248 2.9053-1.612.6998-3.345 1.0498-5.2 1.0498-1.84 0-3.573-.35-5.201-1.0498-1.611-.7162-3.027-1.6846-4.248-2.9053-1.204-1.237-2.156-2.6937-2.856-4.3701-.7-1.6927-1.05-3.5156-1.05-5.4688 0-1.9856.35-3.8248 1.05-5.5175.7-1.6928 1.652-3.1495 2.856-4.3702 1.221-1.2369 2.637-2.2054 4.248-2.9052 1.628-.6999 3.361-1.0498 5.201-1.0498 1.855 0 3.588.3336 5.2 1.0009 1.627.6511 3.043 1.587 4.248 2.8077 1.204 1.2044 2.156 2.6611 2.856 4.3701.7 1.6927 1.05 3.5807 1.05 5.664zm-6.714 0c0-1.0742-.179-2.0426-.537-2.9052-.342-.8789-.814-1.6276-1.416-2.2461-.602-.6348-1.31-1.1149-2.124-1.4405-.797-.3418-1.652-.5127-2.563-.5127-.912 0-1.774.1709-2.588.5127-.798.3256-1.498.8057-2.1 1.4405-.586.6185-1.05 1.3672-1.391 2.2461-.342.8626-.513 1.831-.513 2.9052 0 1.0092.171 1.945.513 2.8077.341.8626.805 1.6113 1.391 2.246.602.6348 1.302 1.1394 2.1 1.5137.814.3581 1.676.5371 2.588.5371.911 0 1.766-.1709 2.563-.5127.814-.3418 1.522-.8219 2.124-1.4404.602-.6185 1.074-1.3672 1.416-2.2461.358-.8789.537-1.8473.537-2.9053zM347.556 76h-6.665V49.8525h1.611l2.197 3.1006c1.074-.9765 2.295-1.7252 3.662-2.2461 1.368-.5371 2.784-.8056 4.248-.8056h5.884v6.6406h-5.884c-.699 0-1.359.1302-1.977.3906-.619.2604-1.156.6185-1.611 1.0742-.456.4558-.814.9929-1.075 1.6114-.26.6185-.39 1.2776-.39 1.9775V76zm20.752 9.9609h-6.714V49.8525h1.611l2.661 3.1495c.602-.5697 1.262-1.1068 1.978-1.6114.716-.5045 1.456-.9358 2.221-1.2939.782-.3744 1.587-.6673 2.417-.8789.83-.2116 1.669-.3174 2.515-.3174 1.839 0 3.565.3336 5.176 1.001 1.627.651 3.043 1.5787 4.248 2.7832 1.221 1.2044 2.181 2.6611 2.881 4.3701.7 1.6927 1.05 3.5726 1.05 5.6396 0 2.1485-.35 4.0853-1.05 5.8106-.7 1.709-1.66 3.1657-2.881 4.3701-1.205 1.1882-2.621 2.0996-4.248 2.7344-1.611.6347-3.337.9521-5.176.9521-.586 0-1.172-.0651-1.758-.1953-.569-.1302-1.139-.3011-1.709-.5127-.553-.2278-1.106-.4801-1.66-.7568-.537-.2767-1.058-.5615-1.562-.8545v11.7187zm13.354-23.2666c0-1.1067-.179-2.0996-.537-2.9785-.342-.8789-.814-1.6194-1.416-2.2217-.602-.6184-1.31-1.0905-2.124-1.416-.814-.3255-1.676-.4883-2.588-.4883-.911 0-1.774.1628-2.588.4883-.797.3255-1.497.7976-2.099 1.416-.603.6023-1.083 1.3428-1.441 2.2217-.342.8789-.513 1.8718-.513 2.9785 0 1.058.171 2.0264.513 2.9053.358.8789.838 1.6276 1.441 2.2461.602.6185 1.302 1.0986 2.099 1.4404.814.3418 1.677.5127 2.588.5127.912 0 1.774-.1709 2.588-.5127.814-.3418 1.522-.8219 2.124-1.4404.602-.6185 1.074-1.3672 1.416-2.2461.358-.8789.537-1.8473.537-2.9053zm18.604 10.8155c0 .5859-.106 1.1393-.318 1.6601-.211.5046-.504.944-.879 1.3184-.374.3743-.813.6673-1.318.8789-.505.2279-1.05.3418-1.636.3418-.569 0-1.115-.1139-1.636-.3418-.504-.2116-.952-.5046-1.342-.8789-.375-.3744-.676-.8138-.904-1.3184-.211-.5208-.317-1.0742-.317-1.6601 0-.5697.106-1.1068.317-1.6114.228-.5045.529-.944.904-1.3183.39-.3744.838-.6673 1.342-.8789.521-.2279 1.067-.3418 1.636-.3418.586 0 1.131.1139 1.636.3418.505.2116.944.5045 1.318.8789.375.3743.668.8138.879 1.3183.212.5046.318 1.0417.318 1.6114z" fill="#000" id="Corp." filter="url(#filter0_d)"/>
    <path d="M36.457 76H11.9453V40.9902h7.0068v28.003H36.457V76zm10.8155-33.252c0 .6185-.1221 1.1963-.3663 1.7334-.2278.5372-.5452 1.0092-.9521 1.4161-.4069.3906-.887.708-1.4404.9521-.5371.2279-1.1149.3418-1.7334.3418s-1.2045-.1139-1.7578-.3418c-.5371-.2441-1.0092-.5615-1.4161-.9521-.3906-.4069-.708-.8789-.9521-1.4161-.2279-.5371-.3418-1.1149-.3418-1.7334 0-.6022.1139-1.1718.3418-1.7089.2441-.5534.5615-1.0254.9521-1.4161.4069-.4069.879-.7242 1.4161-.9521.5533-.2441 1.1393-.3662 1.7578-.3662s1.1963.1221 1.7334.3662c.5534.2279 1.0335.5452 1.4404.9521.4069.3907.7243.8627.9521 1.4161.2442.5371.3663 1.1067.3663 1.7089zM46.125 76h-6.7139V49.8525h6.7139V76zm23.7061-13.3057c0-.9114-.1791-1.7903-.5372-2.6367-.3418-.8626-.8138-1.6194-1.416-2.2705-.6022-.6673-1.3102-1.1963-2.124-1.5869-.7975-.4069-1.652-.6104-2.5635-.6104-.9114 0-1.7741.1547-2.5879.4639-.7975.3093-1.4974.765-2.0996 1.3672-.5859.6022-1.0498 1.3509-1.3916 2.2461-.3418.8789-.5127 1.888-.5127 3.0273 0 1.0905.1709 2.0752.5127 2.9541.3418.8627.8057 1.6032 1.3916 2.2217.6022.6185 1.3021 1.0987 2.0996 1.4404.8138.3256 1.6765.4883 2.5879.4883.9115 0 1.766-.1953 2.5635-.5859.8138-.4069 1.5218-.9359 2.124-1.5869.6022-.6673 1.0742-1.4242 1.416-2.2705.3581-.8627.5372-1.7497.5372-2.6612zm6.7138 10.0098c0 1.8392-.3499 3.5645-1.0498 5.1758-.6999 1.6113-1.6601 3.0192-2.8808 4.2236-1.2045 1.2044-2.6205 2.1566-4.2481 2.8565-1.6113.6998-3.3366 1.0498-5.1758 1.0498l-3.3447-.0489v-6.665l3.2959.0488c1.0417 0 1.9287-.1383 2.6611-.415.7325-.2604 1.3509-.6266 1.8555-1.0986.5046-.4558.9033-.9847 1.1963-1.587.3092-.6022.5534-1.2369.7324-1.9043-.2604.4232-.6348.7732-1.123 1.0498-.4883.2605-1.0336.4721-1.6358.6348-.5859.1791-1.2044.3011-1.8554.3662-.6348.0651-1.2289.0977-1.7823.0977-1.8392 0-3.5726-.3174-5.2002-.9522-1.6113-.6347-3.0273-1.5381-4.248-2.7099-1.2044-1.1882-2.1566-2.6367-2.8565-4.3457-.6998-1.709-1.0498-3.6377-1.0498-5.7862 0-1.9694.35-3.8004 1.0498-5.4931.6999-1.6927 1.6521-3.1576 2.8565-4.3946 1.2207-1.2369 2.6367-2.2054 4.248-2.9052 1.6276-.6999 3.361-1.0498 5.2002-1.0498.8464 0 1.6846.1058 2.5147.3173.8301.2116 1.6357.5046 2.417.879.7812.3743 1.5218.8138 2.2217 1.3183.7161.5046 1.3834 1.0498 2.0019 1.6358l2.5879-3.1006h1.6113v22.8027zM88.3125 76h-6.665V39.4521h6.665V51c.7975-.6022 1.6195-1.0254 2.4658-1.2695.8464-.2604 1.709-.3907 2.5879-.3907 1.6113 0 3.125.3093 4.541.9278 1.416.6022 2.6448 1.4404 3.6868 2.5146 1.058 1.058 1.888 2.3031 2.49 3.7354.618 1.416.928 2.9297.928 4.541V76h-6.7141V61.0586h.0488c0-.6836-.1302-1.3265-.3906-1.9287-.2605-.6185-.6185-1.1556-1.0743-1.6113-.4557-.4558-.9847-.8138-1.5869-1.0743-.6022-.2604-1.2451-.3906-1.9287-.3906-.6999 0-1.359.1302-1.9775.3906-.6185.2605-1.1556.6185-1.6114 1.0743-.4557.4557-.8138.9928-1.0742 1.6113-.2604.6022-.3906 1.2451-.3906 1.9287V76zm34.2285 0c-1.611 0-3.125-.3011-4.541-.9033-1.416-.6185-2.661-1.4567-3.735-2.5147-1.058-1.0742-1.897-2.3193-2.515-3.7353-.602-1.416-.903-2.9297-.903-4.541V56.542H107.6v-6.6406h3.247V39.4521h6.64v10.4493h10.108v6.6406h-10.108v7.7637c0 .6998.131 1.359.391 1.9775.26.6022.618 1.1312 1.074 1.5869.456.4557.993.822 1.611 1.0987.619.2604 1.278.3906 1.978.3906h5.054V76h-5.054zm15.479 0h-6.666V49.8525h1.612l2.197 2.5391c1.074-.9766 2.287-1.7253 3.638-2.2461 1.367-.5371 2.791-.8057 4.272-.8057 1.595 0 3.101.3093 4.517.9278 1.416.6022 2.653 1.4404 3.711 2.5146 1.058 1.058 1.888 2.3031 2.49 3.7354.619 1.416.928 2.9297.928 4.541V76h-6.665V61.0586c0-.6836-.13-1.3265-.391-1.9287-.26-.6185-.618-1.1556-1.074-1.6113-.456-.4558-.985-.8138-1.587-1.0743-.602-.2604-1.245-.3906-1.929-.3906-.7 0-1.359.1302-1.977.3906-.619.2605-1.156.6185-1.612 1.0743-.455.4557-.813.9928-1.074 1.6113-.26.6022-.39 1.2451-.39 1.9287V76zm29.321-33.252c0 .6185-.122 1.1963-.366 1.7334-.228.5372-.546 1.0092-.953 1.4161-.406.3906-.887.708-1.44.9521-.537.2279-1.115.3418-1.733.3418-.619 0-1.205-.1139-1.758-.3418-.537-.2441-1.009-.5615-1.416-.9521-.391-.4069-.708-.8789-.952-1.4161-.228-.5371-.342-1.1149-.342-1.7334 0-.6022.114-1.1718.342-1.7089.244-.5534.561-1.0254.952-1.4161.407-.4069.879-.7242 1.416-.9521.553-.2441 1.139-.3662 1.758-.3662.618 0 1.196.1221 1.733.3662.553.2279 1.034.5452 1.44.9521.407.3907.725.8627.953 1.4161.244.5371.366 1.1067.366 1.7089zM166.193 76h-6.714V49.8525h6.714V76zm11.768 0h-6.665V49.8525h1.611l2.197 2.5391c1.075-.9766 2.287-1.7253 3.638-2.2461 1.367-.5371 2.792-.8057 4.273-.8057 1.595 0 3.1.3093 4.516.9278 1.416.6022 2.653 1.4404 3.711 2.5146 1.058 1.058 1.888 2.3031 2.49 3.7354.619 1.416.928 2.9297.928 4.541V76h-6.665V61.0586c0-.6836-.13-1.3265-.391-1.9287-.26-.6185-.618-1.1556-1.074-1.6113-.455-.4558-.984-.8138-1.587-1.0743-.602-.2604-1.245-.3906-1.928-.3906-.7 0-1.359.1302-1.978.3906-.618.2605-1.155.6185-1.611 1.0743-.456.4557-.814.9928-1.074 1.6113-.261.6022-.391 1.2451-.391 1.9287V76zm40.063-13.3057c0-.9114-.179-1.7903-.537-2.6367-.341-.8626-.813-1.6194-1.416-2.2705-.602-.6673-1.31-1.1963-2.124-1.5869-.797-.4069-1.652-.6104-2.563-.6104-.912 0-1.774.1547-2.588.4639-.798.3093-1.497.765-2.1 1.3672-.586.6022-1.05 1.3509-1.391 2.2461-.342.8789-.513 1.888-.513 3.0273 0 1.0905.171 2.0752.513 2.9541.341.8627.805 1.6032 1.391 2.2217.603.6185 1.302 1.0987 2.1 1.4404.814.3256 1.676.4883 2.588.4883.911 0 1.766-.1953 2.563-.5859.814-.4069 1.522-.9359 2.124-1.5869.603-.6673 1.075-1.4242 1.416-2.2705.358-.8627.537-1.7497.537-2.6612zm6.714 10.0098c0 1.8392-.35 3.5645-1.05 5.1758-.699 1.6113-1.66 3.0192-2.88 4.2236-1.205 1.2044-2.621 2.1566-4.248 2.8565-1.612.6998-3.337 1.0498-5.176 1.0498l-3.345-.0489v-6.665l3.296.0488c1.042 0 1.929-.1383 2.661-.415.733-.2604 1.351-.6266 1.856-1.0986.504-.4558.903-.9847 1.196-1.587.309-.6022.553-1.2369.732-1.9043-.26.4232-.634.7732-1.123 1.0498-.488.2605-1.033.4721-1.636.6348-.585.1791-1.204.3011-1.855.3662-.635.0651-1.229.0977-1.782.0977-1.839 0-3.573-.3174-5.2-.9522-1.612-.6347-3.028-1.5381-4.248-2.7099-1.205-1.1882-2.157-2.6367-2.857-4.3457-.7-1.709-1.05-3.6377-1.05-5.7862 0-1.9694.35-3.8004 1.05-5.4931.7-1.6927 1.652-3.1576 2.857-4.3946 1.22-1.2369 2.636-2.2054 4.248-2.9052 1.627-.6999 3.361-1.0498 5.2-1.0498.846 0 1.684.1058 2.514.3173.831.2116 1.636.5046 2.417.879.782.3743 1.522.8138 2.222 1.3183.716.5046 1.384 1.0498 2.002 1.6358l2.588-3.1006h1.611v22.8027z" fill="#000" id="Lightning" filter="url(#filter1_d)"/>
    <path d="M248.465 85.1936L214 0l36.194 50.4916 2.878-17.0104 37.001 79.9988-37.805-50.7644-3.803 22.478z" fill="#F2C94C" id="Vector" filter="url(#filter2_d)"/>
    <path d="M30.7545 93.172c.044.2493.0733.4253.088.528.0293.088.044.2127.044.374 0 .484-.11.9387-.33 1.364-.2054.4107-.4914.704-.858.88-.2934-.396-.6527-.7333-1.078-1.012-.4254-.2933-.8947-.528-1.408-.704-.4987-.1907-1.0194-.33-1.562-.418-.5427-.088-1.0707-.132-1.584-.132-.5134 0-.9974.044-1.452.132-.44.0733-.836.1833-1.188.33-.3374.132-.6087.3007-.814.506-.1907.2053-.286.44-.286.704.044.3227.242.6527.594.99.352.3227.7846.6453 1.298.968.5133.308 1.078.616 1.694.924.6306.308 1.2466.6013 1.848.88.748.352 1.3933.682 1.936.99.5426.293.99.623 1.342.99.352.352.616.755.792 1.21.176.455.264 1.005.264 1.65 0 .748-.1247 1.452-.374 2.112-.2494.645-.616 1.21-1.1 1.694-.4694.484-1.0414.858-1.716 1.122-.6747.279-1.43.418-2.266.418-.8214 0-1.7087-.125-2.662-.374-.9534-.249-1.848-.594-2.684-1.034-.8214-.425-1.5107-.917-2.068-1.474-.5427-.572-.814-1.173-.814-1.804 0-.293.0806-.667.242-1.122.176-.455.484-.931.924-1.43.044.44.2786.961.704 1.562.44.601 1.0926 1.159 1.958 1.672.8066.469 1.6353.814 2.486 1.034.8653.205 1.672.308 2.42.308.8213 0 1.4886-.103 2.002-.308.5133-.205.9166-.447 1.21-.726.2933-.293.4986-.587.616-.88.1173-.293.1833-.528.198-.704-.0147-.293-.154-.572-.418-.836-.2494-.279-.594-.543-1.034-.792-.4254-.264-.924-.528-1.496-.792s-1.166-.528-1.782-.792c-.924-.411-1.7234-.792-2.398-1.144-.66-.3667-1.21-.7333-1.65-1.1-.4254-.3813-.7407-.7773-.946-1.188-.1907-.4107-.286-.88-.286-1.408 0-.8213.2493-1.5987.748-2.332.4986-.7333 1.2173-1.2907 2.156-1.672.4693-.2053.968-.352 1.496-.44.5426-.088 1.0706-.132 1.584-.132.968 0 1.914.132 2.838.396.924.264 1.848.6013 2.772 1.012zm8.8912 5.72c-.0586.9093-.22 1.694-.484 2.354-.264.645-.6453 1.217-1.144 1.716-.484.484-1.078.924-1.782 1.32s-1.5253.777-2.464 1.144c0 .088-.0073.183-.022.286v.286c0 .191.0147.389.044.594.0294.205.0807.396.154.572.0734.176.176.323.308.44.132.103.3007.154.506.154.396 0 .7847-.088 1.166-.264.3814-.176.7407-.389 1.078-.638.352-.264.6747-.543.968-.836.308-.308.5794-.587.814-.836.1467.132.2714.257.374.374-.66.88-1.386 1.613-2.178 2.2-.7773.572-1.518.939-2.222 1.1-1.012-.117-1.804-.484-2.376-1.1-.5573-.631-.836-1.386-.836-2.266 0-.601.0807-1.21.242-1.826.176-.631.4107-1.232.704-1.804.308-.587.66-1.137 1.056-1.65.4107-.5133.8434-.9607 1.298-1.342.4694-.3813.946-.682 1.43-.902.4987-.22.99-.33 1.474-.33.6747.088 1.3054.506 1.892 1.254zm-1.518.726c-.396.0587-.8066.22-1.232.484-.4253.264-.8286.616-1.21 1.056-.3666.44-.704.953-1.012 1.54-.308.587-.55 1.217-.726 1.892 1.1734-.587 2.1487-1.305 2.926-2.156.7774-.865 1.1954-1.804 1.254-2.816zm2.0086 7.942c.0733-.425.198-.983.374-1.672.1906-.704.4106-1.445.66-2.222.2493-.792.5133-1.584.792-2.376.2786-.792.55-1.5033.814-2.134.1906-.4547.3593-.8067.506-1.056.1466-.264.308-.484.484-.66.2053.0293.418.0807.638.154.22.0733.4326.1613.638.264.2053.1027.3886.2127.55.33.1613.1027.286.2053.374.308-.396.4693-.748 1.0047-1.056 1.606-.2934.601-.594 1.371-.902 2.31.792-.704 1.4886-1.379 2.09-2.024.616-.6453 1.188-1.364 1.716-2.156.088-.0733.242-.11.462-.11.2053 0 .4033.0367.594.11.1906.0587.3226.1467.396.264-.264.704-.396 1.4007-.396 2.09 0 .645.0953 1.129.286 1.452-.0147.088-.1174.257-.308.506-.176.249-.374.484-.594.704-.396-.205-.748-.484-1.056-.836-.308-.367-.5354-.763-.682-1.188-.6894.484-1.276.961-1.76 1.43-.484.455-.902.968-1.254 1.54-.3374.557-.6307 1.203-.88 1.936-.2347.733-.462 1.606-.682 2.618-.132-.015-.2934-.066-.484-.154-.176-.073-.3594-.169-.55-.286-.176-.117-.3374-.242-.484-.374-.1467-.132-.242-.257-.286-.374zm10.611-7.348c0-.264.0147-.5133.044-.748.044-.2347.1247-.4327.242-.594.1174-.176.2787-.308.484-.396.2054-.1027.4767-.154.814-.154.2054 0 .4327.022.682.066.264.044.4547.1247.572.242-.0586.2493-.11.4693-.154.66-.0293.1907-.0586.4033-.088.638-.0146.22-.0293.491-.044.814-.0146.308-.0293.711-.044 1.21-.0293.997-.0806 1.892-.154 2.684-.0586.777-.2053 1.555-.44 2.332 0 .059.022.088.066.088.22-.161.4694-.396.748-.704.2787-.308.572-.653.88-1.034.308-.396.616-.814.924-1.254.308-.44.594-.873.858-1.298.352-.616.7407-1.386 1.166-2.31.4254-.924.7774-1.914 1.056-2.97.088 0 .198.022.33.066.1467.0293.286.0733.418.132.1467.044.2714.0953.374.154.1174.0587.198.11.242.154-.0293.6307-.1833 1.276-.462 1.936-.264.66-.5866 1.298-.968 1.914-.3813.616-.7846 1.195-1.21 1.738-.4253.543-.814 1.012-1.166 1.408-.704.821-1.4153 1.555-2.134 2.2-.704.645-1.5473 1.269-2.53 1.87-.3813-.147-.682-.345-.902-.594-.22-.235-.33-.484-.33-.748 0-.176.0367-.374.11-.594.088-.235.1834-.528.286-.88.1027-.367.1907-.821.264-1.364.088-.543.132-1.232.132-2.068 0-.484-.0146-.968-.044-1.452-.0146-.499-.022-.88-.022-1.144zm8.6733 6.314c0-.132.0074-.293.022-.484.0294-.205.0734-.469.132-.792.0587-.337.132-.741.22-1.21.1027-.469.2274-1.034.374-1.694.0294-.147.0954-.381.198-.704.1027-.323.2347-.66.396-1.012.176-.367.3814-.7187.616-1.056.2494-.3373.5427-.5867.88-.748.2494.0587.5794.2127.99.462.4107.2347.7627.5647 1.056.99-.3373.381-.6233.763-.858 1.144-.22.381-.4253.777-.616 1.188-.176.411-.3446.836-.506 1.276-.1466.44-.3153.902-.506 1.386-.1613.411-.308.836-.44 1.276-.132.425-.2053.799-.22 1.122 0 .264-.0073.447-.022.55 0 .117-.0366.176-.11.176-.0586 0-.176-.037-.352-.11-.176-.073-.3593-.183-.55-.33-.176-.161-.3373-.359-.484-.594-.1466-.235-.22-.513-.22-.836zm4.202-9.548c0-.088.022-.22.066-.396-.0733-.0733-.1393-.1833-.198-.33-.044-.1467-.066-.2787-.066-.396 0-.132.0147-.308.044-.528.044-.2347.0954-.484.154-.748.0587-.264.132-.5353.22-.814.088-.2933.176-.5573.264-.792.176 0 .3887.0513.638.154.264.088.528.2127.792.374.264.1467.506.3153.726.506.22.176.3887.3447.506.506-.1613.1613-.374.3887-.638.682-.264.2787-.5206.5793-.77.902-.2493.308-.4766.6013-.682.88-.2053.2787-.3373.4767-.396.594-.176-.0293-.33-.1027-.462-.22-.132-.132-.198-.2567-.198-.374zm4.5393.352c.3813.1173.7406.3813 1.078.792.3373.396.5866.836.748 1.32-.1614.396-.4107.873-.748 1.43-.3374.557-.6747 1.129-1.012 1.716-.3374.572-.6454 1.122-.924 1.65-.264.513-.418.939-.462 1.276.2346-.249.4913-.535.77-.858.2933-.337.572-.667.836-.99.2786-.337.5353-.638.77-.902.2346-.279.418-.484.55-.616.2786-.293.6086-.631.99-1.012.3813-.396.7773-.763 1.188-1.1.4253-.352.8506-.6453 1.276-.88.4253-.2493.814-.374 1.166-.374.3813 0 .6966.132.946.396.264.2493.4693.5133.616.792 0 .0293-.0587.073-.176.132-.1027.044-.2567.183-.462.418-.2054.264-.44.631-.704 1.1-.2494.455-.4987.953-.748 1.496-.2347.528-.4327 1.071-.594 1.628-.1614.557-.242 1.063-.242 1.518 0 .367.044.601.132.704.1026.103.242.154.418.154.1613 0 .33-.037.506-.11.176-.073.3153-.11.418-.11.0586.029.1026.095.132.198.044.088.066.169.066.242-.1174.103-.2567.205-.418.308-.1614.103-.33.198-.506.286-.176.088-.352.161-.528.22-.1614.059-.308.088-.44.088-.4254 0-.7774-.066-1.056-.198-.264-.117-.4767-.279-.638-.484-.1467-.205-.2494-.447-.308-.726-.0587-.293-.088-.601-.088-.924 0-.176.0146-.374.044-.594.0293-.22.088-.477.176-.77.088-.308.2126-.667.374-1.078.1613-.425.3666-.931.616-1.518-.0294 0-.2274.103-.594.308-.3667.205-.7627.521-1.188.946-.6894.66-1.3127 1.313-1.87 1.958-.5427.645-1.1 1.364-1.672 2.156-.3227.455-.6087.836-.858 1.144-.2347.323-.44.535-.616.638-.308-.176-.5354-.425-.682-.748-.1467-.308-.2567-.631-.33-.968 0-.279.0366-.631.11-1.056.088-.425.198-.895.33-1.408.1466-.528.3226-1.078.528-1.65.2053-.572.4326-1.144.682-1.716.5573-1.291 1.0633-2.3027 1.518-3.036.4693-.7333.7626-1.1293.88-1.188zm3.8728 17.226c0-.088.0294-.169.088-.242.0587-.073.1247-.147.198-.22.176.161.33.286.462.374.1174.088.2347.161.352.22.1027.059.2127.095.33.11.1174.015.2567.022.418.022.7627 0 1.4887-.205 2.178-.616.6894-.396 1.3347-.975 1.936-1.738.616-.763 1.1734-1.694 1.672-2.794.4987-1.1.9387-2.347 1.32-3.74-.176.176-.396.374-.66.594-.2493.205-.5133.403-.792.594-.2786.191-.5573.367-.836.528-.264.161-.4913.279-.682.352-.2493-.044-.484-.147-.704-.308-.2053-.176-.3886-.389-.55-.638-.1613-.249-.286-.528-.374-.836-.088-.323-.132-.66-.132-1.012 0-.572.1027-1.159.308-1.76.22-.601.506-1.188.858-1.76.352-.587.7627-1.137 1.232-1.65.484-.5133.99-.9607 1.518-1.342.5427-.3813 1.0854-.682 1.628-.902.5574-.2347 1.1-.352 1.628-.352.5134 0 .8947.11 1.144.33.264.2053.4547.5647.572 1.078-.1613-.088-.3666-.132-.616-.132-.352 0-.7626.1393-1.232.418-.4546.2787-.924.6453-1.408 1.1-.4693.44-.9386.953-1.408 1.54-.4693.572-.8873 1.159-1.254 1.76-.352.601-.6453 1.188-.88 1.76-.22.572-.33 1.085-.33 1.54 0 .103.0074.169.022.198.0147.015.0367.022.066.022.132 0 .308-.073.528-.22.2347-.147.4914-.33.77-.55.2934-.235.594-.499.902-.792.308-.308.6014-.616.88-.924.6307-.704 1.2027-1.489 1.716-2.354.528-.88.946-1.731 1.254-2.552.396.0293.748.0953 1.056.198.308.1027.5207.213.638.33-.4986 1.144-.902 2.105-1.21 2.882-.2933.777-.55 1.467-.77 2.068-.396 1.056-.77 2.017-1.122 2.882-.3373.88-.6893 1.687-1.056 2.42-.352.748-.7406 1.437-1.166 2.068-.4106.645-.88 1.261-1.408 1.848-.2493.279-.5353.521-.858.726-.308.22-.6306.403-.968.55-.3226.147-.6453.257-.968.33-.308.073-.594.11-.858.11-.352 0-.7113-.044-1.078-.132-.3666-.073-.704-.183-1.012-.33-.3226-.132-.6013-.293-.836-.484-.2346-.176-.4033-.367-.506-.572zm34.6603-18.414c0 .8067-.205 1.5767-.616 2.31-.396.7333-.938 1.3787-1.628 1.936-.674.543-1.474.975-2.398 1.298-.909.323-1.877.484-2.9038.484-.3667 0-.66-.044-.88-.132-.2053-.103-.44-.293-.704-.572-.7333 1.599-1.3347 3.073-1.804 4.422-.4547 1.335-.814 2.633-1.078 3.894-.5573-.132-1.012-.367-1.364-.704-.352-.323-.6747-.733-.968-1.232.1467-.279.3227-.645.528-1.1.2053-.455.4547-1.012.748-1.672.2933-.675.6307-1.474 1.012-2.398.396-.939.858-2.031 1.386-3.278.2347-.572.44-1.0707.616-1.496s.33-.8213.462-1.188c.132-.3813.2493-.7553.352-1.122.1173-.3667.2347-.77.352-1.21-.6893.22-1.3273.4767-1.914.77-.572.2933-1.0487.6013-1.43.924-.132-.088-.2713-.22-.418-.396-.132-.176-.2567-.3667-.374-.572-.1173-.22-.22-.44-.308-.66-.088-.22-.1393-.418-.154-.594.4253-.2933.9533-.5647 1.584-.814.6307-.2493 1.3053-.462 2.024-.638.7187-.1907 1.4593-.3373 2.222-.44.7773-.1027 1.5178-.154 2.2218-.154.836 0 1.592.11 2.266.33.675.2053 1.247.4987 1.716.88.47.3813.829.836 1.078 1.364.25.528.374 1.1147.374 1.76zm-3.916-2.64c-.557 0-1.129.044-1.716.132l.264.396c-.146.1907-.33.4767-.55.858-.22.3813-.462.8433-.726 1.386-.2638.528-.5571 1.122-.8798 1.782-.308.66-.638 1.3567-.99 2.09 1.144 0 2.1858-.103 3.1238-.308.939-.22 1.738-.5133 2.398-.88.675-.3813 1.196-.8213 1.562-1.32.382-.4987.572-1.034.572-1.606 0-.7627-.256-1.3713-.77-1.826-.513-.4693-1.276-.704-2.288-.704zm10.472 5.39c-.058.9093-.22 1.694-.484 2.354-.264.645-.645 1.217-1.144 1.716-.484.484-1.078.924-1.782 1.32s-1.525.777-2.464 1.144c0 .088-.007.183-.022.286v.286c0 .191.015.389.044.594.03.205.081.396.154.572.074.176.176.323.308.44.132.103.301.154.506.154.396 0 .785-.088 1.166-.264.382-.176.741-.389 1.078-.638.352-.264.675-.543.968-.836.308-.308.58-.587.814-.836.147.132.272.257.374.374-.66.88-1.386 1.613-2.178 2.2-.777.572-1.518.939-2.222 1.1-1.012-.117-1.804-.484-2.376-1.1-.557-.631-.836-1.386-.836-2.266 0-.601.081-1.21.242-1.826.176-.631.411-1.232.704-1.804.308-.587.66-1.137 1.056-1.65.411-.5133.844-.9607 1.298-1.342.47-.3813.946-.682 1.43-.902.499-.22.99-.33 1.474-.33.675.088 1.306.506 1.892 1.254zm-1.518.726c-.396.0587-.806.22-1.232.484-.425.264-.828.616-1.21 1.056-.366.44-.704.953-1.012 1.54-.308.587-.55 1.217-.726 1.892 1.174-.587 2.149-1.305 2.926-2.156.778-.865 1.196-1.804 1.254-2.816zm5.133 9.152c-.836-.088-1.504-.455-2.002-1.1-.499-.645-.748-1.467-.748-2.464 0-.587.088-1.195.264-1.826.176-.631.425-1.239.748-1.826.322-.601.704-1.166 1.144-1.694.44-.528.916-.9827 1.43-1.364.806-.6013 1.562-.902 2.266-.902.469.2493.931.77 1.386 1.562h.198c.058-.0147.124-.022.198-.022.777 0 1.166.6893 1.166 2.068 0 .924-.154 1.804-.462 2.64-.294.821-.712 1.569-1.254 2.244-.528.675-1.166 1.247-1.914 1.716-.734.455-1.54.777-2.42.968zm1.122-6.93c-.25.337-.484.704-.704 1.1-.22.396-.411.799-.572 1.21-.162.396-.286.785-.374 1.166-.088.367-.132.697-.132.99 0 .352.058.689.176 1.012.117.323.249.506.396.55.66-.147 1.261-.418 1.804-.814.557-.411 1.034-.917 1.43-1.518.41-.601.726-1.283.946-2.046.234-.763.352-1.577.352-2.442 0-.381-.022-.682-.066-.902-.044-.22-.118-.4107-.22-.572-.646.1907-1.225.499-1.738.924-.499.425-.932.873-1.298 1.342zm4.387 13.442c-.206-.059-.323-.279-.352-.66-.059-.191-.103-.418-.132-.682-.015-.264-.022-.565-.022-.902 0-.308.051-.733.154-1.276.102-.528.242-1.129.418-1.804.19-.675.418-1.401.682-2.178.264-.792.557-1.591.88-2.398.396-1.012.74-1.885 1.034-2.618.293-.748.535-1.393.726-1.936.205-.543.366-.99.484-1.342.132-.352.234-.6527.308-.902.058-.176.146-.3887.264-.638.117-.2493.249-.4987.396-.748.161-.264.322-.506.484-.726.161-.2347.308-.4107.44-.528.513.0733.997.2053 1.452.396.454.1907.733.374.836.55-.206.1907-.44.4913-.704.902-.264.396-.521.836-.77 1.32-.25.4693-.477.953-.682 1.452-.206.499-.36.939-.462 1.32.146-.249.337-.521.572-.814.234-.293.594-.697 1.078-1.21.542-.5573 1.048-.9827 1.518-1.276.484-.308.902-.462 1.254-.462.557 0 1.012.154 1.364.462.366.308.55.704.55 1.188 0 1.056-.176 2.105-.528 3.146-.352 1.027-.858 1.958-1.518 2.794-.25.323-.543.631-.88.924-.338.293-.69.557-1.056.792-.367.22-.726.396-1.078.528-.352.132-.668.198-.946.198-.264 0-.499-.051-.704-.154-.191-.117-.323-.257-.396-.418.572-.337 1.129-.807 1.672-1.408.542-.601 1.041-1.291 1.496-2.068.469-.792.872-1.643 1.21-2.552.352-.909.616-1.8333.792-2.772-.558.2933-1.064.616-1.518.968-.44.337-.88.785-1.32 1.342-.528.645-.946 1.166-1.254 1.562-.308.396-.565.733-.77 1.012-.191.279-.352.543-.484.792-.118.235-.25.528-.396.88-.206.469-.448 1.093-.726 1.87-.264.763-.543 1.621-.836 2.574-.279.953-.565 1.965-.858 3.036-.279 1.085-.55 2.163-.814 3.234-.162-.029-.301-.147-.418-.352-.118-.132-.206-.227-.264-.286-.044-.059-.103-.103-.176-.132zm12.541-8.69c0-.645.154-1.547.462-2.706.308-1.173.74-2.537 1.298-4.092.909-2.4787 1.76-4.5393 2.552-6.182.806-1.6573 1.591-2.948 2.354-3.872.176.0293.388.1027.638.22.264.1173.52.2493.77.396.249.132.469.2713.66.418.205.1467.337.264.396.352-1.144 1.3493-2.149 2.8013-3.014 4.356-.866 1.5547-1.658 3.3367-2.376 5.346-.616 1.731-1.086 3.293-1.408 4.686-.323 1.379-.484 2.53-.484 3.454v.462c0 .059.007.117.022.176-.206-.029-.382-.081-.528-.154-.147-.073-.242-.161-.286-.264-.03-.073-.11-.183-.242-.33-.132-.132-.25-.235-.352-.308-.132-.088-.242-.315-.33-.682-.088-.381-.132-.807-.132-1.276zm13.011-7.7c-.059.9093-.22 1.694-.484 2.354-.264.645-.645 1.217-1.144 1.716-.484.484-1.078.924-1.782 1.32s-1.525.777-2.464 1.144c0 .088-.007.183-.022.286v.286c0 .191.015.389.044.594.029.205.081.396.154.572.073.176.176.323.308.44.132.103.301.154.506.154.396 0 .785-.088 1.166-.264.381-.176.741-.389 1.078-.638.352-.264.675-.543.968-.836.308-.308.579-.587.814-.836.147.132.271.257.374.374-.66.88-1.386 1.613-2.178 2.2-.777.572-1.518.939-2.222 1.1-1.012-.117-1.804-.484-2.376-1.1-.557-.631-.836-1.386-.836-2.266 0-.601.081-1.21.242-1.826.176-.631.411-1.232.704-1.804.308-.587.66-1.137 1.056-1.65.411-.5133.843-.9607 1.298-1.342.469-.3813.946-.682 1.43-.902.499-.22.99-.33 1.474-.33.675.088 1.305.506 1.892 1.254zm-1.518.726c-.396.0587-.807.22-1.232.484-.425.264-.829.616-1.21 1.056-.367.44-.704.953-1.012 1.54-.308.587-.55 1.217-.726 1.892 1.173-.587 2.149-1.305 2.926-2.156.777-.865 1.195-1.804 1.254-2.816z" fill="#000" id="Serving People" filter="url(#filter3_d)"/>
  </g>
  <defs>
    <filter id="filter0_d" x="271.636" y="35.502" width="136.63" height="61.459" filterUnits="userSpaceOnUse" color-interpolation-filters="sRGB">
      <feFlood flood-opacity="0" result="BackgroundImageFix"/>
      <feColorMatrix in="SourceAlpha" values="0 0 0 0 0 0 0 0 0 0 0 0 0 0 0 0 0 0 127 0"/>
      <feOffset dy="3"/>
      <feGaussianBlur stdDeviation="4"/>
      <feColorMatrix values="0 0 0 0 1 0 0 0 0 1 0 0 0 0 1 0 0 0 1 0"/>
      <feBlend in2="BackgroundImageFix" result="effect1_dropShadow"/>
      <feBlend in="SourceGraphic" in2="effect1_dropShadow" result="shape"/>
    </filter>
    <filter id="filter1_d" x="3.94531" y="33.3047" width="228.793" height="63.7051" filterUnits="userSpaceOnUse" color-interpolation-filters="sRGB">
      <feFlood flood-opacity="0" result="BackgroundImageFix"/>
      <feColorMatrix in="SourceAlpha" values="0 0 0 0 0 0 0 0 0 0 0 0 0 0 0 0 0 0 127 0"/>
      <feOffset dy="3"/>
      <feGaussianBlur stdDeviation="4"/>
      <feColorMatrix values="0 0 0 0 1 0 0 0 0 1 0 0 0 0 1 0 0 0 1 0"/>
      <feBlend in2="BackgroundImageFix" result="effect1_dropShadow"/>
      <feBlend in="SourceGraphic" in2="effect1_dropShadow" result="shape"/>
    </filter>
    <filter id="filter2_d" x="187.452" y="0" width="129.169" height="133.48" filterUnits="userSpaceOnUse" color-interpolation-filters="sRGB">
      <feFlood flood-opacity="0" result="BackgroundImageFix"/>
      <feColorMatrix in="SourceAlpha" values="0 0 0 0 0 0 0 0 0 0 0 0 0 0 0 0 0 0 127 0"/>
      <feOffset dy="10"/>
      <feGaussianBlur stdDeviation="5"/>
      <feColorMatrix values="0 0 0 0 0.136962 0 0 0 0 0.35051 0 0 0 0 0.670833 0 0 0 1 0"/>
      <feBlend in2="BackgroundImageFix" result="effect1_dropShadow"/>
      <feBlend in="SourceGraphic" in2="effect1_dropShadow" result="shape"/>
    </filter>
    <filter id="filter3_d" x="11.4105" y="87.74" width="141.517" height="36.334" filterUnits="userSpaceOnUse" color-interpolation-filters="sRGB">
      <feFlood flood-opacity="0" result="BackgroundImageFix"/>
      <feColorMatrix in="SourceAlpha" values="0 0 0 0 0 0 0 0 0 0 0 0 0 0 0 0 0 0 127 0"/>
      <feOffset dy="3"/>
      <feGaussianBlur stdDeviation="2.5"/>
      <feColorMatrix values="0 0 0 0 1 0 0 0 0 1 0 0 0 0 1 0 0 0 1 0"/>
      <feBlend in2="BackgroundImageFix" result="effect1_dropShadow"/>
      <feBlend in="SourceGraphic" in2="effect1_dropShadow" result="shape"/>
    </filter>
  </defs>
</svg>